# xmcd
#
# Track frame offsets: 
#        150
#        17938
#        35899
#        51927
#        67648
#        82330
#        98222
#        112391
#        126771
#        137955
#        151408
#        163183
#        176522
#
# Disc length: 2567 seconds
#
# Revision: 0
# Processed by: cddbd v1.4PL0 Copyright (c) Steve Scherf et al.
# Submitted via: ExactAudioCopy v0.90b4
#
DISCID=be0a050d
DTITLE=Ståbys Förråd - Our Version Of The Truth
DYEAR=2003
DGENRE=Country
TTITLE0=Past The Point Of Rescue
TTITLE1=Never Gonna Feel That Way Again
TTITLE2=Speed Of The Sound Of Loneliness
TTITLE3=You Ain't Goin' Nowhere
TTITLE4=Just To See You Smile
TTITLE5=Let Go
TTITLE6=Wild Side Of Life
TTITLE7=If Tomorrow Never Comes
TTITLE8=Version Of The Truth
TTITLE9=Small Town Saturday Night
TTITLE10=I Like It I Love It
TTITLE11=Killin' Time
TTITLE12=Don't Close Your Eyes
EXTD=
EXTT0=
EXTT1=
EXTT2=
EXTT3=
EXTT4=
EXTT5=
EXTT6=
EXTT7=
EXTT8=
EXTT9=
EXTT10=
EXTT11=
EXTT12=
PLAYORDER=
